<svg width="60" height="60" viewBox="0 0 60 60" fill="none" xmlns="http://www.w3.org/2000/svg">
<circle cx="30" cy="30" r="30" fill="#8424B3"/>
<path d="M10.125 18.8875C10.377 17.7831 10.9966 16.797 11.8823 16.0908C12.768 15.3845 13.8672 14.9999 15 15H45C46.1328 14.9999 47.232 15.3845 48.1177 16.0908C49.0034 16.797 49.623 17.7831 49.875 18.8875L30 31.035L10.125 18.8875ZM10 21.7425V39.5025L24.5075 30.6075L10 21.7425ZM26.9025 32.075L10.4775 42.1425C10.8833 42.9982 11.5238 43.7211 12.3245 44.2269C13.1251 44.7328 14.0529 45.0009 15 45H45C45.9469 45.0002 46.8744 44.7315 47.6746 44.2252C48.4748 43.7189 49.1147 42.9958 49.52 42.14L33.095 32.0725L30 33.965L26.9025 32.075ZM35.4925 30.61L50 39.5025V21.7425L35.4925 30.61Z" fill="white"/>
</svg>
