<svg width="60" height="60" viewBox="0 0 60 60" fill="none" xmlns="http://www.w3.org/2000/svg">
<circle cx="30" cy="30" r="30" fill="#8424B3"/>
<path d="M30 10C18.95 10 10 18.947 10 29.9932C10 38.8402 15.725 46.3127 23.675 48.9618C24.675 49.1367 25.05 48.537 25.05 48.0121C25.05 47.5373 25.025 45.9628 25.025 44.2884C20 45.2131 18.7 43.0638 18.3 41.9392C18.075 41.3644 17.1 39.59 16.25 39.1151C15.55 38.7403 14.55 37.8156 16.225 37.7906C17.8 37.7656 18.925 39.2401 19.3 39.8399C21.1 42.8639 23.975 42.0142 25.125 41.4893C25.3 40.1898 25.825 39.3151 26.4 38.8152C21.95 38.3154 17.3 36.591 17.3 28.9436C17.3 26.7693 18.075 24.9699 19.35 23.5704C19.15 23.0706 18.45 21.0213 19.55 18.2722C19.55 18.2722 21.225 17.7474 25.05 20.3215C26.65 19.8717 28.35 19.6467 30.05 19.6467C31.75 19.6467 33.45 19.8717 35.05 20.3215C38.875 17.7224 40.55 18.2722 40.55 18.2722C41.65 21.0213 40.95 23.0706 40.75 23.5704C42.025 24.9699 42.8 26.7443 42.8 28.9436C42.8 36.616 38.125 38.3154 33.675 38.8152C34.4 39.44 35.025 40.6396 35.025 42.514C35.025 45.1881 35 47.3374 35 48.0121C35 48.537 35.375 49.1617 36.375 48.9618C40.346 47.6229 43.7967 45.0723 46.241 41.6693C48.6853 38.2664 50.0001 34.1826 50 29.9932C50 18.947 41.05 10 30 10Z" fill="#E7E7E7"/>
</svg>
