<svg width="60" height="60" viewBox="0 0 60 60" fill="none" xmlns="http://www.w3.org/2000/svg">
<circle cx="30" cy="30" r="30" fill="#8424B3"/>
<path d="M10 12.865C10 11.2825 11.315 10 12.9375 10H47.0625C48.685 10 50 11.2825 50 12.865V47.135C50 48.7175 48.685 50 47.0625 50H12.9375C11.315 50 10 48.7175 10 47.135V12.865ZM22.3575 43.485V25.4225H16.355V43.485H22.3575ZM19.3575 22.955C21.45 22.955 22.7525 21.57 22.7525 19.835C22.715 18.0625 21.4525 16.715 19.3975 16.715C17.3425 16.715 16 18.065 16 19.835C16 21.57 17.3025 22.955 19.3175 22.955H19.3575ZM31.6275 43.485V33.3975C31.6275 32.8575 31.6675 32.3175 31.8275 31.9325C32.26 30.855 33.2475 29.7375 34.9075 29.7375C37.08 29.7375 37.9475 31.3925 37.9475 33.8225V43.485H43.95V33.125C43.95 27.575 40.99 24.995 37.04 24.995C33.855 24.995 32.4275 26.745 31.6275 27.9775V28.04H31.5875L31.6275 27.9775V25.4225H25.6275C25.7025 27.1175 25.6275 43.485 25.6275 43.485H31.6275Z" fill="white"/>
</svg>
