<svg width="61" height="51" viewBox="0 0 61 51" fill="none" xmlns="http://www.w3.org/2000/svg">
<path fill-rule="evenodd" clip-rule="evenodd" d="M0 48.45C0 47.7737 0.267782 47.1251 0.744437 46.6469C1.22109 46.1687 1.86757 45.9 2.54167 45.9H58.4583C59.1324 45.9 59.7789 46.1687 60.2556 46.6469C60.7322 47.1251 61 47.7737 61 48.45C61 49.1263 60.7322 49.7749 60.2556 50.2531C59.7789 50.7313 59.1324 51 58.4583 51H2.54167C1.86757 51 1.22109 50.7313 0.744437 50.2531C0.267782 49.7749 0 49.1263 0 48.45ZM0 33.15C0 32.4737 0.267782 31.8251 0.744437 31.3469C1.22109 30.8687 1.86757 30.6 2.54167 30.6H58.4583C59.1324 30.6 59.7789 30.8687 60.2556 31.3469C60.7322 31.8251 61 32.4737 61 33.15C61 33.8263 60.7322 34.4749 60.2556 34.9531C59.7789 35.4313 59.1324 35.7 58.4583 35.7H2.54167C1.86757 35.7 1.22109 35.4313 0.744437 34.9531C0.267782 34.4749 0 33.8263 0 33.15ZM0 17.85C0 17.1737 0.267782 16.5251 0.744437 16.0469C1.22109 15.5687 1.86757 15.3 2.54167 15.3H58.4583C59.1324 15.3 59.7789 15.5687 60.2556 16.0469C60.7322 16.5251 61 17.1737 61 17.85C61 18.5263 60.7322 19.1749 60.2556 19.6531C59.7789 20.1313 59.1324 20.4 58.4583 20.4H2.54167C1.86757 20.4 1.22109 20.1313 0.744437 19.6531C0.267782 19.1749 0 18.5263 0 17.85ZM0 2.55C0 1.8737 0.267782 1.2251 0.744437 0.746878C1.22109 0.26866 1.86757 0 2.54167 0H58.4583C59.1324 0 59.7789 0.26866 60.2556 0.746878C60.7322 1.2251 61 1.8737 61 2.55C61 3.2263 60.7322 3.8749 60.2556 4.35312C59.7789 4.83134 59.1324 5.1 58.4583 5.1H2.54167C1.86757 5.1 1.22109 4.83134 0.744437 4.35312C0.267782 3.8749 0 3.2263 0 2.55Z" fill="#E7E7E7"/>
</svg>
